<mxfile host="app.diagrams.net" modified="2021-09-15T00:30:44.180Z" agent="5.0 (Windows NT 10.0; Win64; x64) AppleWebKit/537.36 (KHTML, like Gecko) Chrome/93.0.4577.63 Safari/537.36" etag="1OIa26eFm-Pj2yBkD39b" version="15.2.7" type="github">
  <diagram id="UH9yZu_1mTcSUNvKoekO" name="Page-1">
    <mxGraphModel dx="868" dy="450" grid="1" gridSize="10" guides="1" tooltips="1" connect="1" arrows="1" fold="1" page="1" pageScale="1" pageWidth="827" pageHeight="1169" math="0" shadow="0">
      <root>
        <mxCell id="0" />
        <mxCell id="1" parent="0" />
        <mxCell id="6qUw7cJJWpjUd7TiCsEM-13" value="Usuario" style="swimlane;" parent="1" vertex="1">
          <mxGeometry x="40" y="200" width="210" height="240" as="geometry">
            <mxRectangle x="120" y="80" width="130" height="23" as="alternateBounds" />
          </mxGeometry>
        </mxCell>
        <mxCell id="6qUw7cJJWpjUd7TiCsEM-4" value="" style="shape=internalStorage;whiteSpace=wrap;html=1;backgroundOutline=1;dx=40;dy=30;" parent="6qUw7cJJWpjUd7TiCsEM-13" vertex="1">
          <mxGeometry y="20" width="210" height="220" as="geometry" />
        </mxCell>
        <mxCell id="6qUw7cJJWpjUd7TiCsEM-8" value="&lt;font style=&quot;vertical-align: inherit&quot;&gt;&lt;font style=&quot;vertical-align: inherit&quot;&gt;&lt;font style=&quot;vertical-align: inherit&quot;&gt;&lt;font style=&quot;vertical-align: inherit&quot;&gt;PK&lt;/font&gt;&lt;/font&gt;&lt;/font&gt;&lt;/font&gt;" style="text;html=1;strokeColor=none;fillColor=none;align=center;verticalAlign=middle;whiteSpace=wrap;rounded=0;" parent="6qUw7cJJWpjUd7TiCsEM-13" vertex="1">
          <mxGeometry y="20" width="30" height="30" as="geometry" />
        </mxCell>
        <mxCell id="6qUw7cJJWpjUd7TiCsEM-7" value="&lt;font style=&quot;vertical-align: inherit&quot;&gt;&lt;font style=&quot;vertical-align: inherit&quot;&gt;Id&lt;/font&gt;&lt;/font&gt;" style="text;html=1;strokeColor=none;fillColor=none;align=center;verticalAlign=middle;whiteSpace=wrap;rounded=0;" parent="6qUw7cJJWpjUd7TiCsEM-13" vertex="1">
          <mxGeometry x="10" y="15" width="90" height="40" as="geometry" />
        </mxCell>
        <mxCell id="6qUw7cJJWpjUd7TiCsEM-16" value="Nome" style="text;strokeColor=none;fillColor=none;align=left;verticalAlign=top;spacingLeft=4;spacingRight=4;overflow=hidden;rotatable=0;points=[[0,0.5],[1,0.5]];portConstraint=eastwest;" parent="6qUw7cJJWpjUd7TiCsEM-13" vertex="1">
          <mxGeometry x="40" y="50" width="140" height="26" as="geometry" />
        </mxCell>
        <mxCell id="6qUw7cJJWpjUd7TiCsEM-18" value="Cpf" style="text;strokeColor=none;fillColor=none;align=left;verticalAlign=top;spacingLeft=4;spacingRight=4;overflow=hidden;rotatable=0;points=[[0,0.5],[1,0.5]];portConstraint=eastwest;" parent="6qUw7cJJWpjUd7TiCsEM-13" vertex="1">
          <mxGeometry x="40" y="76" width="140" height="26" as="geometry" />
        </mxCell>
        <mxCell id="6qUw7cJJWpjUd7TiCsEM-19" value="DataNascimento" style="text;strokeColor=none;fillColor=none;align=left;verticalAlign=top;spacingLeft=4;spacingRight=4;overflow=hidden;rotatable=0;points=[[0,0.5],[1,0.5]];portConstraint=eastwest;" parent="6qUw7cJJWpjUd7TiCsEM-13" vertex="1">
          <mxGeometry x="40" y="102" width="140" height="26" as="geometry" />
        </mxCell>
        <mxCell id="6qUw7cJJWpjUd7TiCsEM-37" value="Foto" style="text;strokeColor=none;fillColor=none;align=left;verticalAlign=top;spacingLeft=4;spacingRight=4;overflow=hidden;rotatable=0;points=[[0,0.5],[1,0.5]];portConstraint=eastwest;" parent="6qUw7cJJWpjUd7TiCsEM-13" vertex="1">
          <mxGeometry x="40" y="193" width="140" height="26" as="geometry" />
        </mxCell>
        <mxCell id="6qUw7cJJWpjUd7TiCsEM-38" value="Email" style="text;strokeColor=none;fillColor=none;align=left;verticalAlign=top;spacingLeft=4;spacingRight=4;overflow=hidden;rotatable=0;points=[[0,0.5],[1,0.5]];portConstraint=eastwest;" parent="6qUw7cJJWpjUd7TiCsEM-13" vertex="1">
          <mxGeometry x="40" y="128" width="140" height="26" as="geometry" />
        </mxCell>
        <mxCell id="6qUw7cJJWpjUd7TiCsEM-39" value="Status" style="text;strokeColor=none;fillColor=none;align=left;verticalAlign=top;spacingLeft=4;spacingRight=4;overflow=hidden;rotatable=0;points=[[0,0.5],[1,0.5]];portConstraint=eastwest;" parent="6qUw7cJJWpjUd7TiCsEM-13" vertex="1">
          <mxGeometry x="40" y="214" width="140" height="26" as="geometry" />
        </mxCell>
        <mxCell id="6qUw7cJJWpjUd7TiCsEM-40" value="Telefone" style="text;strokeColor=none;fillColor=none;align=left;verticalAlign=top;spacingLeft=4;spacingRight=4;overflow=hidden;rotatable=0;points=[[0,0.5],[1,0.5]];portConstraint=eastwest;" parent="6qUw7cJJWpjUd7TiCsEM-13" vertex="1">
          <mxGeometry x="40" y="150" width="140" height="26" as="geometry" />
        </mxCell>
        <mxCell id="6qUw7cJJWpjUd7TiCsEM-20" value="Cargo" style="text;strokeColor=none;fillColor=none;align=left;verticalAlign=top;spacingLeft=4;spacingRight=4;overflow=hidden;rotatable=0;points=[[0,0.5],[1,0.5]];portConstraint=eastwest;" parent="6qUw7cJJWpjUd7TiCsEM-13" vertex="1">
          <mxGeometry x="40" y="170" width="140" height="26" as="geometry" />
        </mxCell>
        <mxCell id="6qUw7cJJWpjUd7TiCsEM-21" value="Evento" style="swimlane;" parent="1" vertex="1">
          <mxGeometry x="560" y="200" width="210" height="240" as="geometry">
            <mxRectangle x="330" y="130" width="130" height="23" as="alternateBounds" />
          </mxGeometry>
        </mxCell>
        <mxCell id="6qUw7cJJWpjUd7TiCsEM-22" value="" style="shape=internalStorage;whiteSpace=wrap;html=1;backgroundOutline=1;dx=40;dy=30;" parent="6qUw7cJJWpjUd7TiCsEM-21" vertex="1">
          <mxGeometry y="20" width="210" height="220" as="geometry" />
        </mxCell>
        <mxCell id="6qUw7cJJWpjUd7TiCsEM-23" value="&lt;font style=&quot;vertical-align: inherit&quot;&gt;&lt;font style=&quot;vertical-align: inherit&quot;&gt;&lt;font style=&quot;vertical-align: inherit&quot;&gt;&lt;font style=&quot;vertical-align: inherit&quot;&gt;PK&lt;/font&gt;&lt;/font&gt;&lt;/font&gt;&lt;/font&gt;" style="text;html=1;strokeColor=none;fillColor=none;align=center;verticalAlign=middle;whiteSpace=wrap;rounded=0;" parent="6qUw7cJJWpjUd7TiCsEM-21" vertex="1">
          <mxGeometry y="20" width="30" height="30" as="geometry" />
        </mxCell>
        <mxCell id="6qUw7cJJWpjUd7TiCsEM-24" value="&lt;font style=&quot;vertical-align: inherit&quot;&gt;&lt;font style=&quot;vertical-align: inherit&quot;&gt;Id&lt;/font&gt;&lt;/font&gt;" style="text;html=1;strokeColor=none;fillColor=none;align=center;verticalAlign=middle;whiteSpace=wrap;rounded=0;" parent="6qUw7cJJWpjUd7TiCsEM-21" vertex="1">
          <mxGeometry x="10" y="15" width="90" height="40" as="geometry" />
        </mxCell>
        <mxCell id="6qUw7cJJWpjUd7TiCsEM-25" value="Data" style="text;strokeColor=none;fillColor=none;align=left;verticalAlign=top;spacingLeft=4;spacingRight=4;overflow=hidden;rotatable=0;points=[[0,0.5],[1,0.5]];portConstraint=eastwest;" parent="6qUw7cJJWpjUd7TiCsEM-21" vertex="1">
          <mxGeometry x="40" y="50" width="140" height="26" as="geometry" />
        </mxCell>
        <mxCell id="6qUw7cJJWpjUd7TiCsEM-26" value="Nome" style="text;strokeColor=none;fillColor=none;align=left;verticalAlign=top;spacingLeft=4;spacingRight=4;overflow=hidden;rotatable=0;points=[[0,0.5],[1,0.5]];portConstraint=eastwest;" parent="6qUw7cJJWpjUd7TiCsEM-21" vertex="1">
          <mxGeometry x="40" y="76" width="140" height="26" as="geometry" />
        </mxCell>
        <mxCell id="6qUw7cJJWpjUd7TiCsEM-27" value="Motivo" style="text;strokeColor=none;fillColor=none;align=left;verticalAlign=top;spacingLeft=4;spacingRight=4;overflow=hidden;rotatable=0;points=[[0,0.5],[1,0.5]];portConstraint=eastwest;" parent="6qUw7cJJWpjUd7TiCsEM-21" vertex="1">
          <mxGeometry x="40" y="102" width="140" height="26" as="geometry" />
        </mxCell>
        <mxCell id="6qUw7cJJWpjUd7TiCsEM-28" value="JustificativaAdiamento" style="text;strokeColor=none;fillColor=none;align=left;verticalAlign=top;spacingLeft=4;spacingRight=4;overflow=hidden;rotatable=0;points=[[0,0.5],[1,0.5]];portConstraint=eastwest;" parent="6qUw7cJJWpjUd7TiCsEM-21" vertex="1">
          <mxGeometry x="38" y="122" width="140" height="26" as="geometry" />
        </mxCell>
        <mxCell id="6qUw7cJJWpjUd7TiCsEM-41" value="Valor" style="text;strokeColor=none;fillColor=none;align=left;verticalAlign=top;spacingLeft=4;spacingRight=4;overflow=hidden;rotatable=0;points=[[0,0.5],[1,0.5]];portConstraint=eastwest;" parent="6qUw7cJJWpjUd7TiCsEM-21" vertex="1">
          <mxGeometry x="40" y="147" width="140" height="26" as="geometry" />
        </mxCell>
        <mxCell id="6qUw7cJJWpjUd7TiCsEM-42" value="Situacao" style="text;strokeColor=none;fillColor=none;align=left;verticalAlign=top;spacingLeft=4;spacingRight=4;overflow=hidden;rotatable=0;points=[[0,0.5],[1,0.5]];portConstraint=eastwest;" parent="6qUw7cJJWpjUd7TiCsEM-21" vertex="1">
          <mxGeometry x="40" y="170" width="140" height="26" as="geometry" />
        </mxCell>
        <mxCell id="6qUw7cJJWpjUd7TiCsEM-43" value="Patrocinador" style="text;strokeColor=none;fillColor=none;align=left;verticalAlign=top;spacingLeft=4;spacingRight=4;overflow=hidden;rotatable=0;points=[[0,0.5],[1,0.5]];portConstraint=eastwest;" parent="6qUw7cJJWpjUd7TiCsEM-21" vertex="1">
          <mxGeometry x="40" y="196" width="140" height="26" as="geometry" />
        </mxCell>
        <mxCell id="6qUw7cJJWpjUd7TiCsEM-44" value="Cargo" style="swimlane;" parent="1" vertex="1">
          <mxGeometry x="30" y="545" width="210" height="80" as="geometry">
            <mxRectangle x="120" y="80" width="130" height="23" as="alternateBounds" />
          </mxGeometry>
        </mxCell>
        <mxCell id="6qUw7cJJWpjUd7TiCsEM-45" value="" style="shape=internalStorage;whiteSpace=wrap;html=1;backgroundOutline=1;dx=40;dy=30;" parent="6qUw7cJJWpjUd7TiCsEM-44" vertex="1">
          <mxGeometry y="20" width="210" height="60" as="geometry" />
        </mxCell>
        <mxCell id="6qUw7cJJWpjUd7TiCsEM-46" value="&lt;font style=&quot;vertical-align: inherit&quot;&gt;&lt;font style=&quot;vertical-align: inherit&quot;&gt;&lt;font style=&quot;vertical-align: inherit&quot;&gt;&lt;font style=&quot;vertical-align: inherit&quot;&gt;PK&lt;/font&gt;&lt;/font&gt;&lt;/font&gt;&lt;/font&gt;" style="text;html=1;strokeColor=none;fillColor=none;align=center;verticalAlign=middle;whiteSpace=wrap;rounded=0;" parent="6qUw7cJJWpjUd7TiCsEM-44" vertex="1">
          <mxGeometry y="20" width="30" height="30" as="geometry" />
        </mxCell>
        <mxCell id="6qUw7cJJWpjUd7TiCsEM-47" value="&lt;font style=&quot;vertical-align: inherit&quot;&gt;&lt;font style=&quot;vertical-align: inherit&quot;&gt;Id&lt;/font&gt;&lt;/font&gt;" style="text;html=1;strokeColor=none;fillColor=none;align=center;verticalAlign=middle;whiteSpace=wrap;rounded=0;" parent="6qUw7cJJWpjUd7TiCsEM-44" vertex="1">
          <mxGeometry x="10" y="15" width="90" height="40" as="geometry" />
        </mxCell>
        <mxCell id="6qUw7cJJWpjUd7TiCsEM-48" value="Descricao" style="text;strokeColor=none;fillColor=none;align=left;verticalAlign=top;spacingLeft=4;spacingRight=4;overflow=hidden;rotatable=0;points=[[0,0.5],[1,0.5]];portConstraint=eastwest;" parent="6qUw7cJJWpjUd7TiCsEM-44" vertex="1">
          <mxGeometry x="40" y="50" width="140" height="26" as="geometry" />
        </mxCell>
        <mxCell id="6qUw7cJJWpjUd7TiCsEM-56" value="Motivo" style="swimlane;" parent="1" vertex="1">
          <mxGeometry x="560" y="550" width="210" height="120" as="geometry">
            <mxRectangle x="120" y="80" width="130" height="23" as="alternateBounds" />
          </mxGeometry>
        </mxCell>
        <mxCell id="6qUw7cJJWpjUd7TiCsEM-57" value="" style="shape=internalStorage;whiteSpace=wrap;html=1;backgroundOutline=1;dx=40;dy=30;" parent="6qUw7cJJWpjUd7TiCsEM-56" vertex="1">
          <mxGeometry y="20" width="210" height="100" as="geometry" />
        </mxCell>
        <mxCell id="6qUw7cJJWpjUd7TiCsEM-58" value="&lt;font style=&quot;vertical-align: inherit&quot;&gt;&lt;font style=&quot;vertical-align: inherit&quot;&gt;&lt;font style=&quot;vertical-align: inherit&quot;&gt;&lt;font style=&quot;vertical-align: inherit&quot;&gt;PK&lt;/font&gt;&lt;/font&gt;&lt;/font&gt;&lt;/font&gt;" style="text;html=1;strokeColor=none;fillColor=none;align=center;verticalAlign=middle;whiteSpace=wrap;rounded=0;" parent="6qUw7cJJWpjUd7TiCsEM-56" vertex="1">
          <mxGeometry y="20" width="30" height="30" as="geometry" />
        </mxCell>
        <mxCell id="6qUw7cJJWpjUd7TiCsEM-59" value="&lt;font style=&quot;vertical-align: inherit&quot;&gt;&lt;font style=&quot;vertical-align: inherit&quot;&gt;Id&lt;/font&gt;&lt;/font&gt;" style="text;html=1;strokeColor=none;fillColor=none;align=center;verticalAlign=middle;whiteSpace=wrap;rounded=0;" parent="6qUw7cJJWpjUd7TiCsEM-56" vertex="1">
          <mxGeometry x="10" y="15" width="90" height="40" as="geometry" />
        </mxCell>
        <mxCell id="6qUw7cJJWpjUd7TiCsEM-60" value="Descricao" style="text;strokeColor=none;fillColor=none;align=left;verticalAlign=top;spacingLeft=4;spacingRight=4;overflow=hidden;rotatable=0;points=[[0,0.5],[1,0.5]];portConstraint=eastwest;" parent="6qUw7cJJWpjUd7TiCsEM-56" vertex="1">
          <mxGeometry x="40" y="50" width="140" height="26" as="geometry" />
        </mxCell>
        <mxCell id="6qUw7cJJWpjUd7TiCsEM-66" value="Titulo" style="text;strokeColor=none;fillColor=none;align=left;verticalAlign=top;spacingLeft=4;spacingRight=4;overflow=hidden;rotatable=0;points=[[0,0.5],[1,0.5]];portConstraint=eastwest;" parent="6qUw7cJJWpjUd7TiCsEM-56" vertex="1">
          <mxGeometry x="40" y="76" width="140" height="26" as="geometry" />
        </mxCell>
        <mxCell id="u1Run-8YqDKNQw5ZjlHB-1" value="Table" style="shape=table;startSize=30;container=1;collapsible=1;childLayout=tableLayout;fixedRows=1;rowLines=0;fontStyle=1;align=center;resizeLast=1;" vertex="1" parent="1">
          <mxGeometry x="320" y="270" width="170" height="110" as="geometry" />
        </mxCell>
        <mxCell id="u1Run-8YqDKNQw5ZjlHB-2" value="" style="shape=partialRectangle;collapsible=0;dropTarget=0;pointerEvents=0;fillColor=none;top=0;left=0;bottom=1;right=0;points=[[0,0.5],[1,0.5]];portConstraint=eastwest;" vertex="1" parent="u1Run-8YqDKNQw5ZjlHB-1">
          <mxGeometry y="30" width="170" height="30" as="geometry" />
        </mxCell>
        <mxCell id="u1Run-8YqDKNQw5ZjlHB-3" value="" style="shape=partialRectangle;connectable=0;fillColor=none;top=0;left=0;bottom=0;right=0;fontStyle=1;overflow=hidden;" vertex="1" parent="u1Run-8YqDKNQw5ZjlHB-2">
          <mxGeometry width="40" height="30" as="geometry" />
        </mxCell>
        <mxCell id="u1Run-8YqDKNQw5ZjlHB-4" value="UsuarioId" style="shape=partialRectangle;connectable=0;fillColor=none;top=0;left=0;bottom=0;right=0;align=left;spacingLeft=6;fontStyle=5;overflow=hidden;" vertex="1" parent="u1Run-8YqDKNQw5ZjlHB-2">
          <mxGeometry x="40" width="130" height="30" as="geometry" />
        </mxCell>
        <mxCell id="u1Run-8YqDKNQw5ZjlHB-5" value="" style="shape=partialRectangle;collapsible=0;dropTarget=0;pointerEvents=0;fillColor=none;top=0;left=0;bottom=0;right=0;points=[[0,0.5],[1,0.5]];portConstraint=eastwest;" vertex="1" parent="u1Run-8YqDKNQw5ZjlHB-1">
          <mxGeometry y="60" width="170" height="30" as="geometry" />
        </mxCell>
        <mxCell id="u1Run-8YqDKNQw5ZjlHB-6" value="" style="shape=partialRectangle;connectable=0;fillColor=none;top=0;left=0;bottom=0;right=0;editable=1;overflow=hidden;" vertex="1" parent="u1Run-8YqDKNQw5ZjlHB-5">
          <mxGeometry width="40" height="30" as="geometry" />
        </mxCell>
        <mxCell id="u1Run-8YqDKNQw5ZjlHB-7" value="" style="shape=partialRectangle;connectable=0;fillColor=none;top=0;left=0;bottom=0;right=0;align=left;spacingLeft=6;overflow=hidden;" vertex="1" parent="u1Run-8YqDKNQw5ZjlHB-5">
          <mxGeometry x="40" width="130" height="30" as="geometry" />
        </mxCell>
        <mxCell id="u1Run-8YqDKNQw5ZjlHB-11" value="" style="shape=partialRectangle;collapsible=0;dropTarget=0;pointerEvents=0;fillColor=none;top=0;left=0;bottom=0;right=0;points=[[0,0.5],[1,0.5]];portConstraint=eastwest;" vertex="1" parent="u1Run-8YqDKNQw5ZjlHB-1">
          <mxGeometry y="90" width="170" height="20" as="geometry" />
        </mxCell>
        <mxCell id="u1Run-8YqDKNQw5ZjlHB-12" value="" style="shape=partialRectangle;connectable=0;fillColor=none;top=0;left=0;bottom=0;right=0;editable=1;overflow=hidden;" vertex="1" parent="u1Run-8YqDKNQw5ZjlHB-11">
          <mxGeometry width="40" height="20" as="geometry" />
        </mxCell>
        <mxCell id="u1Run-8YqDKNQw5ZjlHB-13" value="" style="shape=partialRectangle;connectable=0;fillColor=none;top=0;left=0;bottom=0;right=0;align=left;spacingLeft=6;overflow=hidden;" vertex="1" parent="u1Run-8YqDKNQw5ZjlHB-11">
          <mxGeometry x="40" width="130" height="20" as="geometry" />
        </mxCell>
        <mxCell id="u1Run-8YqDKNQw5ZjlHB-14" value="" style="shape=partialRectangle;connectable=0;fillColor=none;top=0;left=0;bottom=0;right=0;fontStyle=1;overflow=hidden;" vertex="1" parent="1">
          <mxGeometry x="320" y="460" width="30" height="30" as="geometry" />
        </mxCell>
        <mxCell id="u1Run-8YqDKNQw5ZjlHB-15" value="EventoId" style="shape=partialRectangle;connectable=0;fillColor=none;top=0;left=0;bottom=0;right=0;align=left;spacingLeft=6;fontStyle=5;overflow=hidden;" vertex="1" parent="1">
          <mxGeometry x="360" y="330" width="140" height="30" as="geometry" />
        </mxCell>
        <mxCell id="u1Run-8YqDKNQw5ZjlHB-16" value="&lt;font style=&quot;vertical-align: inherit&quot;&gt;&lt;font style=&quot;vertical-align: inherit&quot;&gt;&lt;font style=&quot;vertical-align: inherit&quot;&gt;&lt;font style=&quot;vertical-align: inherit&quot;&gt;&lt;font style=&quot;vertical-align: inherit&quot;&gt;&lt;font style=&quot;vertical-align: inherit&quot;&gt;&lt;font style=&quot;vertical-align: inherit&quot;&gt;&lt;font style=&quot;vertical-align: inherit&quot;&gt;PK/FK&lt;/font&gt;&lt;/font&gt;&lt;/font&gt;&lt;/font&gt;&lt;/font&gt;&lt;/font&gt;&lt;/font&gt;&lt;/font&gt;" style="text;html=1;strokeColor=none;fillColor=none;align=center;verticalAlign=middle;whiteSpace=wrap;rounded=0;" vertex="1" parent="1">
          <mxGeometry x="320" y="300" width="40" height="30" as="geometry" />
        </mxCell>
        <mxCell id="u1Run-8YqDKNQw5ZjlHB-17" value="&lt;font style=&quot;vertical-align: inherit&quot;&gt;&lt;font style=&quot;vertical-align: inherit&quot;&gt;&lt;font style=&quot;vertical-align: inherit&quot;&gt;&lt;font style=&quot;vertical-align: inherit&quot;&gt;&lt;font style=&quot;vertical-align: inherit&quot;&gt;&lt;font style=&quot;vertical-align: inherit&quot;&gt;&lt;font style=&quot;vertical-align: inherit&quot;&gt;&lt;font style=&quot;vertical-align: inherit&quot;&gt;PK/FK&lt;/font&gt;&lt;/font&gt;&lt;/font&gt;&lt;/font&gt;&lt;/font&gt;&lt;/font&gt;&lt;/font&gt;&lt;/font&gt;" style="text;html=1;strokeColor=none;fillColor=none;align=center;verticalAlign=middle;whiteSpace=wrap;rounded=0;" vertex="1" parent="1">
          <mxGeometry x="320" y="330" width="40" height="30" as="geometry" />
        </mxCell>
        <mxCell id="u1Run-8YqDKNQw5ZjlHB-18" value="" style="endArrow=none;html=1;rounded=0;entryX=0;entryY=1;entryDx=0;entryDy=0;exitX=1;exitY=0.409;exitDx=0;exitDy=0;exitPerimeter=0;" edge="1" parent="1" source="6qUw7cJJWpjUd7TiCsEM-4" target="u1Run-8YqDKNQw5ZjlHB-17">
          <mxGeometry relative="1" as="geometry">
            <mxPoint x="230" y="290" as="sourcePoint" />
            <mxPoint x="390" y="290" as="targetPoint" />
            <Array as="points">
              <mxPoint x="300" y="350" />
            </Array>
          </mxGeometry>
        </mxCell>
        <mxCell id="u1Run-8YqDKNQw5ZjlHB-19" value="1" style="resizable=0;html=1;align=right;verticalAlign=bottom;" connectable="0" vertex="1" parent="u1Run-8YqDKNQw5ZjlHB-18">
          <mxGeometry x="1" relative="1" as="geometry" />
        </mxCell>
        <mxCell id="u1Run-8YqDKNQw5ZjlHB-21" value="" style="edgeStyle=entityRelationEdgeStyle;fontSize=12;html=1;endArrow=ERmany;startArrow=ERmany;exitX=1;exitY=0.5;exitDx=0;exitDy=0;" edge="1" parent="1" source="6qUw7cJJWpjUd7TiCsEM-57">
          <mxGeometry width="100" height="100" relative="1" as="geometry">
            <mxPoint x="780" y="610" as="sourcePoint" />
            <mxPoint x="560" y="425" as="targetPoint" />
          </mxGeometry>
        </mxCell>
        <mxCell id="u1Run-8YqDKNQw5ZjlHB-25" value="" style="endArrow=none;html=1;rounded=0;exitX=0;exitY=0.443;exitDx=0;exitDy=0;exitPerimeter=0;" edge="1" parent="1" source="6qUw7cJJWpjUd7TiCsEM-22">
          <mxGeometry relative="1" as="geometry">
            <mxPoint x="490" y="317.49" as="sourcePoint" />
            <mxPoint x="490" y="350" as="targetPoint" />
          </mxGeometry>
        </mxCell>
        <mxCell id="u1Run-8YqDKNQw5ZjlHB-26" value="1" style="resizable=0;html=1;align=right;verticalAlign=bottom;" connectable="0" vertex="1" parent="u1Run-8YqDKNQw5ZjlHB-25">
          <mxGeometry x="1" relative="1" as="geometry" />
        </mxCell>
        <mxCell id="u1Run-8YqDKNQw5ZjlHB-27" value="" style="edgeStyle=entityRelationEdgeStyle;fontSize=12;html=1;endArrow=ERmany;entryX=0.643;entryY=1;entryDx=0;entryDy=0;entryPerimeter=0;exitX=0.567;exitY=-0.012;exitDx=0;exitDy=0;exitPerimeter=0;" edge="1" parent="1" source="6qUw7cJJWpjUd7TiCsEM-44" target="6qUw7cJJWpjUd7TiCsEM-39">
          <mxGeometry width="100" height="100" relative="1" as="geometry">
            <mxPoint x="150" y="540" as="sourcePoint" />
            <mxPoint x="170" y="440" as="targetPoint" />
          </mxGeometry>
        </mxCell>
      </root>
    </mxGraphModel>
  </diagram>
</mxfile>
